<svg width="280" height="106" viewBox="0 0 280 106" fill="none" xmlns="http://www.w3.org/2000/svg">
<path d="M13.85 47C13.5167 47 13.2167 46.8833 12.95 46.65C12.7167 46.3833 12.6 46.0833 12.6 45.75V21.95L5.75 27.2C5.51667 27.4 5.26667 27.5 5 27.5C4.63333 27.5 4.3 27.3 4 26.9L1.05 23.05C0.883333 22.7833 0.8 22.5333 0.8 22.3C0.8 21.8333 1 21.4833 1.4 21.25L12.9 12.35C13.2667 12.1167 13.6667 12 14.1 12H20.35C20.7167 12 21.0167 12.1167 21.25 12.35C21.4833 12.5833 21.6 12.8833 21.6 13.25V45.75C21.6 46.0833 21.4833 46.3833 21.25 46.65C21.0167 46.8833 20.7167 47 20.35 47H13.85ZM41.8035 47.5C37.2035 47.4667 33.7202 46.25 31.3535 43.85C28.9868 41.4167 27.7035 38.2333 27.5035 34.3C27.4368 32.5 27.4035 30.9 27.4035 29.5C27.4035 28.0667 27.4368 26.4167 27.5035 24.55C27.6368 22.05 28.2368 19.8333 29.3035 17.9C30.4035 15.9333 32.0035 14.3833 34.1035 13.25C36.2035 12.0833 38.7702 11.5 41.8035 11.5C46.3035 11.5333 49.7702 12.75 52.2035 15.15C54.6368 17.55 55.9535 20.6833 56.1535 24.55C56.2202 26.4167 56.2535 28.0667 56.2535 29.5C56.2535 30.9 56.2202 32.5 56.1535 34.3C55.9202 38.2333 54.6202 41.4167 52.2535 43.85C49.8869 46.25 46.4035 47.4667 41.8035 47.5ZM41.8035 40.25C43.4368 40.25 44.6535 39.7167 45.4535 38.65C46.2868 37.55 46.7368 36.0167 46.8035 34.05C46.8702 33.0833 46.9035 31.5333 46.9035 29.4C46.9035 27.2667 46.8702 25.75 46.8035 24.85C46.7368 22.95 46.3035 21.45 45.5035 20.35C44.7035 19.25 43.4702 18.6833 41.8035 18.65C40.1702 18.6833 38.9368 19.25 38.1035 20.35C37.3035 21.45 36.8702 22.95 36.8035 24.85C36.7702 25.75 36.7535 27.2667 36.7535 29.4C36.7535 31.5333 36.7702 33.0833 36.8035 34.05C36.9702 38.1833 38.6368 40.25 41.8035 40.25ZM75.7879 47.5C71.1879 47.4667 67.7046 46.25 65.3379 43.85C62.9712 41.4167 61.6879 38.2333 61.4879 34.3C61.4212 32.5 61.3879 30.9 61.3879 29.5C61.3879 28.0667 61.4212 26.4167 61.4879 24.55C61.6212 22.05 62.2212 19.8333 63.2879 17.9C64.3879 15.9333 65.9879 14.3833 68.0879 13.25C70.1879 12.0833 72.7546 11.5 75.7879 11.5C80.2879 11.5333 83.7546 12.75 86.1879 15.15C88.6212 17.55 89.9379 20.6833 90.1379 24.55C90.2046 26.4167 90.2379 28.0667 90.2379 29.5C90.2379 30.9 90.2046 32.5 90.1379 34.3C89.9046 38.2333 88.6046 41.4167 86.2379 43.85C83.8712 46.25 80.3879 47.4667 75.7879 47.5ZM75.7879 40.25C77.4212 40.25 78.6379 39.7167 79.4379 38.65C80.2712 37.55 80.7212 36.0167 80.7879 34.05C80.8546 33.0833 80.8879 31.5333 80.8879 29.4C80.8879 27.2667 80.8546 25.75 80.7879 24.85C80.7212 22.95 80.2879 21.45 79.4879 20.35C78.6879 19.25 77.4546 18.6833 75.7879 18.65C74.1546 18.6833 72.9212 19.25 72.0879 20.35C71.2879 21.45 70.8546 22.95 70.7879 24.85C70.7546 25.75 70.7379 27.2667 70.7379 29.4C70.7379 31.5333 70.7546 33.0833 70.7879 34.05C70.9546 38.1833 72.6212 40.25 75.7879 40.25ZM94.0816 47C93.7816 47 93.515 46.9 93.2816 46.7C93.0816 46.4667 92.9816 46.2167 92.9816 45.95C92.9816 45.7167 93.0483 45.5167 93.1816 45.35L104.082 29.15L93.9816 13.65C93.8816 13.45 93.8316 13.25 93.8316 13.05C93.8316 12.7833 93.9316 12.55 94.1316 12.35C94.3316 12.1167 94.5816 12 94.8816 12H102.132C102.532 12 102.865 12.1 103.132 12.3C103.398 12.5 103.648 12.75 103.882 13.05L109.832 22.1L115.882 13.05C116.315 12.35 116.898 12 117.632 12H124.532C124.798 12 125.032 12.1167 125.232 12.35C125.465 12.55 125.582 12.7833 125.582 13.05C125.582 13.2833 125.515 13.4833 125.382 13.65L115.232 29.1L126.232 45.35C126.332 45.4833 126.382 45.6833 126.382 45.95C126.382 46.2167 126.282 46.4667 126.082 46.7C125.882 46.9 125.632 47 125.332 47H117.882C117.182 47 116.598 46.6667 116.132 46L109.532 36.4L102.982 46C102.615 46.6667 102.048 47 101.282 47H94.0816Z" fill="black"/>
<path d="M5.1 94C4.76667 94 4.48333 93.8833 4.25 93.65C4.01667 93.4167 3.9 93.1333 3.9 92.8V60.25C3.9 59.8833 4 59.5833 4.2 59.35C4.43333 59.1167 4.73333 59 5.1 59H27.1C27.4667 59 27.7667 59.1167 28 59.35C28.2333 59.5833 28.35 59.8833 28.35 60.25V63.55C28.35 63.9167 28.2333 64.2167 28 64.45C27.7667 64.65 27.4667 64.75 27.1 64.75H10.65V73.6H26C26.3667 73.6 26.6667 73.7167 26.9 73.95C27.1333 74.15 27.25 74.4333 27.25 74.8V77.9C27.25 78.2667 27.1333 78.5667 26.9 78.8C26.6667 79 26.3667 79.1 26 79.1H10.65V88.25H27.5C27.8667 88.25 28.1667 88.3667 28.4 88.6C28.6333 88.8333 28.75 89.1333 28.75 89.5V92.8C28.75 93.1667 28.6333 93.4667 28.4 93.7C28.1667 93.9 27.8667 94 27.5 94H5.1ZM36.2035 94C35.8702 94 35.5868 93.8833 35.3535 93.65C35.1202 93.4167 35.0035 93.1333 35.0035 92.8V60.25C35.0035 59.8833 35.1035 59.5833 35.3035 59.35C35.5368 59.1167 35.8368 59 36.2035 59H40.0535C40.4535 59 40.7535 59.0833 40.9535 59.25C41.1535 59.3833 41.3368 59.5667 41.5035 59.8L55.9035 82.2V60.25C55.9035 59.8833 56.0035 59.5833 56.2035 59.35C56.4368 59.1167 56.7368 59 57.1035 59H61.3035C61.6702 59 61.9702 59.1167 62.2035 59.35C62.4368 59.5833 62.5535 59.8833 62.5535 60.25V92.75C62.5535 93.1167 62.4368 93.4167 62.2035 93.65C61.9702 93.8833 61.6868 94 61.3535 94H57.4535C56.8869 94 56.4035 93.7333 56.0035 93.2L41.6535 71.3V92.8C41.6535 93.1667 41.5368 93.4667 41.3035 93.7C41.0702 93.9 40.7702 94 40.4035 94H36.2035ZM83.9551 94.5C79.3884 94.5 75.8217 93.3167 73.2551 90.95C70.7217 88.5833 69.3717 85.2833 69.2051 81.05C69.1717 80.0833 69.1551 78.5333 69.1551 76.4C69.1551 74.2667 69.1717 72.7167 69.2051 71.75C69.3717 67.6167 70.7384 64.3833 73.3051 62.05C75.9051 59.6833 79.4551 58.5 83.9551 58.5C87.0217 58.5 89.6551 59.0167 91.8551 60.05C94.0551 61.0833 95.7217 62.3833 96.8551 63.95C97.9884 65.4833 98.5884 67 98.6551 68.5V68.6C98.6551 68.8667 98.5551 69.1 98.3551 69.3C98.1551 69.4667 97.9051 69.55 97.6051 69.55H92.4551C92.1217 69.55 91.8717 69.5 91.7051 69.4C91.5384 69.2667 91.3884 69.05 91.2551 68.75C90.7884 67.5167 89.9717 66.4667 88.8051 65.6C87.6384 64.7 86.0217 64.25 83.9551 64.25C81.6217 64.25 79.7884 64.8833 78.4551 66.15C77.1551 67.4167 76.4551 69.3667 76.3551 72C76.3217 72.9667 76.3051 74.4333 76.3051 76.4C76.3051 78.3333 76.3217 79.8 76.3551 80.8C76.5551 86.1 79.1217 88.75 84.0551 88.75C86.4217 88.75 88.3217 88.1167 89.7551 86.85C91.1884 85.55 91.9051 83.6333 91.9051 81.1V79.55H85.8051C85.4384 79.55 85.1384 79.4333 84.9051 79.2C84.7051 78.9667 84.6051 78.6667 84.6051 78.3V75.65C84.6051 75.2833 84.7051 74.9833 84.9051 74.75C85.1384 74.5167 85.4384 74.4 85.8051 74.4H97.7551C98.1217 74.4 98.4051 74.5167 98.6051 74.75C98.8384 74.9833 98.9551 75.2833 98.9551 75.65V80.9C98.9551 83.6667 98.3384 86.0833 97.1051 88.15C95.9051 90.1833 94.1717 91.75 91.9051 92.85C89.6384 93.95 86.9884 94.5 83.9551 94.5ZM106.565 94C106.232 94 105.948 93.8833 105.715 93.65C105.482 93.4167 105.365 93.1333 105.365 92.8V60.2C105.365 59.8333 105.482 59.55 105.715 59.35C105.948 59.1167 106.232 59 106.565 59H111.265C111.632 59 111.915 59.1167 112.115 59.35C112.348 59.55 112.465 59.8333 112.465 60.2V92.8C112.465 93.1333 112.348 93.4167 112.115 93.65C111.915 93.8833 111.632 94 111.265 94H106.565ZM121.506 94C121.173 94 120.89 93.8833 120.656 93.65C120.423 93.4167 120.306 93.1333 120.306 92.8V60.25C120.306 59.8833 120.406 59.5833 120.606 59.35C120.84 59.1167 121.14 59 121.506 59H125.356C125.756 59 126.056 59.0833 126.256 59.25C126.456 59.3833 126.64 59.5667 126.806 59.8L141.206 82.2V60.25C141.206 59.8833 141.306 59.5833 141.506 59.35C141.74 59.1167 142.04 59 142.406 59H146.606C146.973 59 147.273 59.1167 147.506 59.35C147.74 59.5833 147.856 59.8833 147.856 60.25V92.75C147.856 93.1167 147.74 93.4167 147.506 93.65C147.273 93.8833 146.99 94 146.656 94H142.756C142.19 94 141.706 93.7333 141.306 93.2L126.956 71.3V92.8C126.956 93.1667 126.84 93.4667 126.606 93.7C126.373 93.9 126.073 94 125.706 94H121.506ZM156.858 94C156.524 94 156.241 93.8833 156.008 93.65C155.774 93.4167 155.658 93.1333 155.658 92.8V60.25C155.658 59.8833 155.758 59.5833 155.958 59.35C156.191 59.1167 156.491 59 156.858 59H178.858C179.224 59 179.524 59.1167 179.758 59.35C179.991 59.5833 180.108 59.8833 180.108 60.25V63.55C180.108 63.9167 179.991 64.2167 179.758 64.45C179.524 64.65 179.224 64.75 178.858 64.75H162.408V73.6H177.758C178.124 73.6 178.424 73.7167 178.658 73.95C178.891 74.15 179.008 74.4333 179.008 74.8V77.9C179.008 78.2667 178.891 78.5667 178.658 78.8C178.424 79 178.124 79.1 177.758 79.1H162.408V88.25H179.258C179.624 88.25 179.924 88.3667 180.158 88.6C180.391 88.8333 180.508 89.1333 180.508 89.5V92.8C180.508 93.1667 180.391 93.4667 180.158 93.7C179.924 93.9 179.624 94 179.258 94H156.858ZM187.961 94C187.628 94 187.345 93.8833 187.111 93.65C186.878 93.4167 186.761 93.1333 186.761 92.8V60.25C186.761 59.8833 186.861 59.5833 187.061 59.35C187.295 59.1167 187.595 59 187.961 59H209.961C210.328 59 210.628 59.1167 210.861 59.35C211.095 59.5833 211.211 59.8833 211.211 60.25V63.55C211.211 63.9167 211.095 64.2167 210.861 64.45C210.628 64.65 210.328 64.75 209.961 64.75H193.511V73.6H208.861C209.228 73.6 209.528 73.7167 209.761 73.95C209.995 74.15 210.111 74.4333 210.111 74.8V77.9C210.111 78.2667 209.995 78.5667 209.761 78.8C209.528 79 209.228 79.1 208.861 79.1H193.511V88.25H210.361C210.728 88.25 211.028 88.3667 211.261 88.6C211.495 88.8333 211.611 89.1333 211.611 89.5V92.8C211.611 93.1667 211.495 93.4667 211.261 93.7C211.028 93.9 210.728 94 210.361 94H187.961ZM219.065 94C218.732 94 218.448 93.8833 218.215 93.65C217.982 93.4167 217.865 93.1333 217.865 92.8V60.25C217.865 59.8833 217.965 59.5833 218.165 59.35C218.398 59.1167 218.698 59 219.065 59H232.015C236.082 59 239.265 59.95 241.565 61.85C243.898 63.75 245.065 66.45 245.065 69.95C245.065 72.3833 244.465 74.4333 243.265 76.1C242.098 77.7333 240.465 78.9167 238.365 79.65L245.665 92.4C245.765 92.6 245.815 92.7833 245.815 92.95C245.815 93.25 245.698 93.5 245.465 93.7C245.265 93.9 245.032 94 244.765 94H240.215C239.682 94 239.265 93.8833 238.965 93.65C238.698 93.4167 238.448 93.0833 238.215 92.65L231.765 80.8H224.815V92.8C224.815 93.1333 224.698 93.4167 224.465 93.65C224.265 93.8833 223.982 94 223.615 94H219.065ZM231.865 75.15C233.865 75.15 235.365 74.7 236.365 73.8C237.398 72.9 237.915 71.6 237.915 69.9C237.915 68.2 237.398 66.8833 236.365 65.95C235.365 65.0167 233.865 64.55 231.865 64.55H224.815V75.15H231.865ZM263.657 94.5C260.691 94.5 258.141 94.05 256.007 93.15C253.874 92.25 252.257 91.0667 251.157 89.6C250.057 88.1333 249.474 86.55 249.407 84.85C249.407 84.55 249.507 84.3 249.707 84.1C249.907 83.9 250.157 83.8 250.457 83.8H254.907C255.307 83.8 255.607 83.8833 255.807 84.05C256.041 84.1833 256.257 84.4167 256.457 84.75C256.791 85.8833 257.557 86.8333 258.757 87.6C259.957 88.3667 261.591 88.75 263.657 88.75C266.024 88.75 267.807 88.3667 269.007 87.6C270.207 86.8 270.807 85.7 270.807 84.3C270.807 83.3667 270.491 82.6 269.857 82C269.257 81.4 268.341 80.8833 267.107 80.45C265.907 80.0167 264.107 79.4833 261.707 78.85C257.774 77.9167 254.891 76.6833 253.057 75.15C251.257 73.5833 250.357 71.3667 250.357 68.5C250.357 66.5667 250.874 64.85 251.907 63.35C252.974 61.85 254.491 60.6667 256.457 59.8C258.457 58.9333 260.774 58.5 263.407 58.5C266.141 58.5 268.507 58.9833 270.507 59.95C272.507 60.9167 274.024 62.1333 275.057 63.6C276.124 65.0333 276.691 66.4667 276.757 67.9C276.757 68.2 276.657 68.45 276.457 68.65C276.257 68.85 276.007 68.95 275.707 68.95H271.057C270.357 68.95 269.874 68.6333 269.607 68C269.407 66.9333 268.741 66.05 267.607 65.35C266.474 64.6167 265.074 64.25 263.407 64.25C261.541 64.25 260.074 64.6 259.007 65.3C257.941 66 257.407 67.0167 257.407 68.35C257.407 69.2833 257.674 70.05 258.207 70.65C258.741 71.25 259.574 71.7833 260.707 72.25C261.874 72.7167 263.541 73.2333 265.707 73.8C268.641 74.4667 270.974 75.2167 272.707 76.05C274.474 76.8833 275.774 77.9333 276.607 79.2C277.441 80.4667 277.857 82.0833 277.857 84.05C277.857 86.1833 277.257 88.05 276.057 89.65C274.891 91.2167 273.224 92.4167 271.057 93.25C268.924 94.0833 266.457 94.5 263.657 94.5Z" fill="black"/>
</svg>
